<mxfile host="app.diagrams.net" modified="2024-04-29T22:38:10.090Z" agent="Mozilla/5.0 (Windows NT 10.0; Win64; x64) AppleWebKit/537.36 (KHTML, like Gecko) Chrome/124.0.0.0 Safari/537.36" etag="YRjHYKJyQrWwCptuTU3B" version="24.2.1" type="github">
  <diagram name="Page-1" id="xCLCZv_K-YB_9N3sQ9Uc">
    <mxGraphModel dx="1430" dy="509" grid="1" gridSize="10" guides="1" tooltips="1" connect="1" arrows="1" fold="1" page="1" pageScale="1" pageWidth="850" pageHeight="1100" background="#379AF0" math="0" shadow="0">
      <root>
        <mxCell id="0" />
        <mxCell id="1" parent="0" />
        <mxCell id="1zGfg7b1owR2OPYJ61bS-1" value="" style="triangle;whiteSpace=wrap;html=1;rotation=-90;fontSize=13;labelBackgroundColor=#11e70d;gradientColor=#4F4F00;rounded=0;shadow=0;sketch=1;curveFitting=1;jiggle=2;strokeColor=none;fillColor=#f7cf02;" vertex="1" parent="1">
          <mxGeometry x="235" y="265" width="380" height="440" as="geometry" />
        </mxCell>
        <mxCell id="1zGfg7b1owR2OPYJ61bS-2" value="" style="triangle;whiteSpace=wrap;html=1;rotation=90;fontSize=13;strokeColor=none;fillColor=#f5f0f0;" vertex="1" parent="1">
          <mxGeometry x="335" y="472.5" width="180" height="225" as="geometry" />
        </mxCell>
        <mxCell id="1zGfg7b1owR2OPYJ61bS-5" value="Connection" style="shape=hexagon;perimeter=hexagonPerimeter2;whiteSpace=wrap;html=1;fixedSize=1;rotation=-60;strokeColor=none;fontSize=13;sketch=1;curveFitting=1;jiggle=2;fillColor=default;gradientColor=none;" vertex="1" parent="1">
          <mxGeometry x="200" y="550" width="80" height="40" as="geometry" />
        </mxCell>
        <mxCell id="1zGfg7b1owR2OPYJ61bS-6" value="Experience" style="shape=hexagon;perimeter=hexagonPerimeter2;whiteSpace=wrap;html=1;fixedSize=1;rotation=60;strokeColor=none;fontSize=13;sketch=1;curveFitting=1;jiggle=2;" vertex="1" parent="1">
          <mxGeometry x="470" y="380" width="80" height="40" as="geometry" />
        </mxCell>
        <mxCell id="1zGfg7b1owR2OPYJ61bS-7" value="Intuition" style="shape=hexagon;perimeter=hexagonPerimeter2;whiteSpace=wrap;html=1;fixedSize=1;rotation=0;strokeColor=none;fontSize=13;sketch=1;curveFitting=1;jiggle=2;" vertex="1" parent="1">
          <mxGeometry x="500" y="676" width="80" height="40" as="geometry" />
        </mxCell>
        <mxCell id="1zGfg7b1owR2OPYJ61bS-11" value="Wisdom&lt;div style=&quot;font-size: 13px;&quot;&gt;Adventure/Journey&lt;/div&gt;&lt;div style=&quot;font-size: 13px;&quot;&gt;Knowledge&lt;/div&gt;" style="whiteSpace=wrap;html=1;aspect=fixed;strokeColor=none;fontSize=13;sketch=1;curveFitting=1;jiggle=2;fillColor=none;" vertex="1" parent="1">
          <mxGeometry x="380.5" y="390" width="90" height="90" as="geometry" />
        </mxCell>
        <mxCell id="1zGfg7b1owR2OPYJ61bS-12" value="Instinct&lt;div style=&quot;font-size: 13px;&quot;&gt;Empathy&lt;/div&gt;&lt;div style=&quot;font-size: 13px;&quot;&gt;Emotions&lt;/div&gt;&lt;div style=&quot;font-size: 13px;&quot;&gt;Inner Compass&lt;/div&gt;&lt;div style=&quot;font-size: 13px;&quot;&gt;Self&lt;/div&gt;" style="whiteSpace=wrap;html=1;aspect=fixed;strokeColor=none;fontSize=13;sketch=1;curveFitting=1;jiggle=2;fillColor=none;" vertex="1" parent="1">
          <mxGeometry x="480" y="575" width="97.5" height="97.5" as="geometry" />
        </mxCell>
        <mxCell id="1zGfg7b1owR2OPYJ61bS-13" value="Openess&lt;div style=&quot;font-size: 13px;&quot;&gt;Listening&lt;/div&gt;&lt;div style=&quot;font-size: 13px;&quot;&gt;Communication&lt;/div&gt;&lt;div style=&quot;font-size: 13px;&quot;&gt;People&lt;/div&gt;" style="whiteSpace=wrap;html=1;aspect=fixed;strokeColor=none;fontSize=13;sketch=1;curveFitting=1;jiggle=2;fillColor=none;" vertex="1" parent="1">
          <mxGeometry x="270" y="575" width="85" height="85" as="geometry" />
        </mxCell>
        <mxCell id="1zGfg7b1owR2OPYJ61bS-14" value="Fulfilment&lt;div style=&quot;font-size: 13px;&quot;&gt;Happiness&lt;/div&gt;&lt;div style=&quot;font-size: 13px;&quot;&gt;Peace&lt;/div&gt;&lt;div style=&quot;font-size: 13px;&quot;&gt;Live in the moment&lt;/div&gt;" style="whiteSpace=wrap;html=1;aspect=fixed;strokeColor=none;fontSize=13;sketch=1;curveFitting=1;jiggle=2;" vertex="1" parent="1">
          <mxGeometry x="387.75" y="532.25" width="75.5" height="75.5" as="geometry" />
        </mxCell>
        <mxCell id="1zGfg7b1owR2OPYJ61bS-16" value="" style="curved=1;endArrow=classic;html=1;rounded=0;fontSize=13;strokeColor=default;" edge="1" parent="1">
          <mxGeometry width="50" height="50" relative="1" as="geometry">
            <mxPoint x="230" y="532.25" as="sourcePoint" />
            <mxPoint x="360" y="382.25" as="targetPoint" />
            <Array as="points">
              <mxPoint x="200" y="442.25" />
              <mxPoint x="270" y="362.25" />
            </Array>
          </mxGeometry>
        </mxCell>
        <mxCell id="1zGfg7b1owR2OPYJ61bS-17" value="" style="curved=1;endArrow=classic;html=1;rounded=0;fontSize=13;strokeColor=default;" edge="1" parent="1">
          <mxGeometry width="50" height="50" relative="1" as="geometry">
            <mxPoint x="530" y="398" as="sourcePoint" />
            <mxPoint x="630" y="550" as="targetPoint" />
            <Array as="points">
              <mxPoint x="640" y="390" />
              <mxPoint x="670" y="500.25" />
            </Array>
          </mxGeometry>
        </mxCell>
        <mxCell id="1zGfg7b1owR2OPYJ61bS-18" value="" style="curved=1;endArrow=classic;html=1;rounded=0;fontSize=13;" edge="1" parent="1">
          <mxGeometry width="50" height="50" relative="1" as="geometry">
            <mxPoint x="500" y="705" as="sourcePoint" />
            <mxPoint x="310" y="705" as="targetPoint" />
            <Array as="points">
              <mxPoint x="465" y="769" />
              <mxPoint x="345" y="759" />
            </Array>
          </mxGeometry>
        </mxCell>
      </root>
    </mxGraphModel>
  </diagram>
</mxfile>
